<?xml version="1.0" encoding="utf-8"?>
<!-- Generator: Adobe Illustrator 26.4.1, SVG Export Plug-In . SVG Version: 6.00 Build 0)  -->
<svg version="1.1" id="Layer_2" xmlns="http://www.w3.org/2000/svg" xmlns:xlink="http://www.w3.org/1999/xlink" x="0px" y="0px"
	 viewBox="0 0 16 16" style="enable-background:new 0 0 16 16;" xml:space="preserve">
<style type="text/css">
	.st0{stroke:#000000;stroke-width:0.5;stroke-miterlimit:10;}
</style>
<g>
	<path class="st0" d="M8.7,14.1H2.2c-0.2,0-0.4-0.2-0.4-0.4V2.4c0-0.2,0.2-0.4,0.4-0.4h9.3c0.2,0,0.4,0.2,0.4,0.4v2.8
		c0,0.2,0.2,0.4,0.4,0.4c0.2,0,0.4-0.2,0.4-0.4V2.4c0-0.7-0.6-1.3-1.3-1.3H2.2c-0.7,0-1.3,0.6-1.3,1.3v11.3c0,0.7,0.6,1.3,1.3,1.3
		h6.5c0.2,0,0.4-0.2,0.4-0.4S9,14.1,8.7,14.1z"/>
	<path class="st0" d="M15.4,14.2l-1.9-2c0.5-0.6,0.8-1.4,0.8-2.3c0-2-1.6-3.6-3.6-3.6S7.1,8,7.1,10s1.6,3.6,3.6,3.6
		c0.8,0,1.6-0.3,2.2-0.7l1.9,2c0.1,0.1,0.2,0.1,0.3,0.1c0.1,0,0.2,0,0.3-0.1C15.6,14.7,15.6,14.4,15.4,14.2L15.4,14.2z M10.7,12.7
		C9.2,12.7,8,11.5,8,10s1.2-2.7,2.7-2.7s2.7,1.2,2.7,2.7S12.2,12.7,10.7,12.7z M9.1,5.2c0-0.2-0.2-0.4-0.4-0.4H3.6
		C3.4,4.8,3.2,5,3.2,5.2c0,0.2,0.2,0.4,0.4,0.4h5.1C9,5.6,9.1,5.4,9.1,5.2z M6.5,7.6c0-0.2-0.2-0.4-0.4-0.4H3.6
		c-0.2,0-0.4,0.2-0.4,0.4S3.4,8,3.6,8h2.5C6.3,8,6.5,7.8,6.5,7.6z M3.6,9.6c-0.2,0-0.4,0.2-0.4,0.4c0,0.2,0.2,0.4,0.4,0.4h1.3
		c0.2,0,0.4-0.2,0.4-0.4c0-0.2-0.2-0.4-0.4-0.4H3.6z"/>
</g>
</svg>
